<svg xmlns="http://www.w3.org/2000/svg" width="720" height="130" viewBox="0 0 720 130" fill="none">
  <style>
    .dot { transition: all 0.3s ease; }
    .count-text { font-family: 'JetBrains Mono', 'Fira Code', monospace; font-size: 13px; fill: #7aa2f7; font-weight: 600; letter-spacing: 0.5px; }
    .label-text { font-family: 'JetBrains Mono', monospace; font-size: 10.5px; fill: #719cd6; letter-spacing: 1.8px; font-weight: 500; }
  </style>
  <rect width="720" height="130" rx="10" fill="#10141e" stroke="#1f2335" stroke-width="1.5"/>
<circle cx="72.0" cy="30" r="3.5" fill="#7aa2f7" class="dot" />
<circle cx="96.0" cy="30" r="3.5" fill="#1f2335" class="dot" />
<circle cx="120.0" cy="30" r="3.5" fill="#1f2335" class="dot" />
<circle cx="144.0" cy="30" r="3.5" fill="#1f2335" class="dot" />
<circle cx="168.0" cy="30" r="3.5" fill="#1f2335" class="dot" />
<circle cx="192.0" cy="30" r="3.5" fill="#1f2335" class="dot" />
<circle cx="216.0" cy="30" r="3.5" fill="#1f2335" class="dot" />
<circle cx="240.0" cy="30" r="3.5" fill="#1f2335" class="dot" />
<circle cx="264.0" cy="30" r="3.5" fill="#1f2335" class="dot" />
<circle cx="288.0" cy="30" r="3.5" fill="#1f2335" class="dot" />
<circle cx="312.0" cy="30" r="3.5" fill="#1f2335" class="dot" />
<circle cx="336.0" cy="30" r="3.5" fill="#1f2335" class="dot" />
<circle cx="360.0" cy="30" r="3.5" fill="#1f2335" class="dot" />
<circle cx="384.0" cy="30" r="3.5" fill="#1f2335" class="dot" />
<circle cx="408.0" cy="30" r="3.5" fill="#1f2335" class="dot" />
<circle cx="432.0" cy="30" r="3.5" fill="#1f2335" class="dot" />
<circle cx="456.0" cy="30" r="3.5" fill="#1f2335" class="dot" />
<circle cx="480.0" cy="30" r="3.5" fill="#1f2335" class="dot" />
<circle cx="504.0" cy="30" r="3.5" fill="#1f2335" class="dot" />
<circle cx="528.0" cy="30" r="3.5" fill="#1f2335" class="dot" />
<circle cx="552.0" cy="30" r="3.5" fill="#1f2335" class="dot" />
<circle cx="576.0" cy="30" r="3.5" fill="#1f2335" class="dot" />
<circle cx="600.0" cy="30" r="3.5" fill="#1f2335" class="dot" />
<circle cx="624.0" cy="30" r="3.5" fill="#1f2335" class="dot" />
<circle cx="648.0" cy="30" r="3.5" fill="#1f2335" class="dot" />
<circle cx="72.0" cy="46" r="3.5" fill="#1f2335" class="dot" />
<circle cx="96.0" cy="46" r="3.5" fill="#1f2335" class="dot" />
<circle cx="120.0" cy="46" r="3.5" fill="#1f2335" class="dot" />
<circle cx="144.0" cy="46" r="3.5" fill="#1f2335" class="dot" />
<circle cx="168.0" cy="46" r="3.5" fill="#1f2335" class="dot" />
<circle cx="192.0" cy="46" r="3.5" fill="#1f2335" class="dot" />
<circle cx="216.0" cy="46" r="3.5" fill="#1f2335" class="dot" />
<circle cx="240.0" cy="46" r="3.5" fill="#1f2335" class="dot" />
<circle cx="264.0" cy="46" r="3.5" fill="#1f2335" class="dot" />
<circle cx="288.0" cy="46" r="3.5" fill="#1f2335" class="dot" />
<circle cx="312.0" cy="46" r="3.5" fill="#1f2335" class="dot" />
<circle cx="336.0" cy="46" r="3.5" fill="#1f2335" class="dot" />
<circle cx="360.0" cy="46" r="3.5" fill="#1f2335" class="dot" />
<circle cx="384.0" cy="46" r="3.5" fill="#1f2335" class="dot" />
<circle cx="408.0" cy="46" r="3.5" fill="#1f2335" class="dot" />
<circle cx="432.0" cy="46" r="3.5" fill="#1f2335" class="dot" />
<circle cx="456.0" cy="46" r="3.5" fill="#1f2335" class="dot" />
<circle cx="480.0" cy="46" r="3.5" fill="#1f2335" class="dot" />
<circle cx="504.0" cy="46" r="3.5" fill="#1f2335" class="dot" />
<circle cx="528.0" cy="46" r="3.5" fill="#1f2335" class="dot" />
<circle cx="552.0" cy="46" r="3.5" fill="#1f2335" class="dot" />
<circle cx="576.0" cy="46" r="3.5" fill="#1f2335" class="dot" />
<circle cx="600.0" cy="46" r="3.5" fill="#1f2335" class="dot" />
<circle cx="624.0" cy="46" r="3.5" fill="#1f2335" class="dot" />
<circle cx="648.0" cy="46" r="3.5" fill="#1f2335" class="dot" />
<circle cx="72.0" cy="62" r="3.5" fill="#1f2335" class="dot" />
<circle cx="96.0" cy="62" r="3.5" fill="#1f2335" class="dot" />
<circle cx="120.0" cy="62" r="3.5" fill="#1f2335" class="dot" />
<circle cx="144.0" cy="62" r="3.5" fill="#1f2335" class="dot" />
<circle cx="168.0" cy="62" r="3.5" fill="#1f2335" class="dot" />
<circle cx="192.0" cy="62" r="3.5" fill="#1f2335" class="dot" />
<circle cx="216.0" cy="62" r="3.5" fill="#1f2335" class="dot" />
<circle cx="240.0" cy="62" r="3.5" fill="#1f2335" class="dot" />
<circle cx="264.0" cy="62" r="3.5" fill="#1f2335" class="dot" />
<circle cx="288.0" cy="62" r="3.5" fill="#1f2335" class="dot" />
<circle cx="312.0" cy="62" r="3.5" fill="#1f2335" class="dot" />
<circle cx="336.0" cy="62" r="3.5" fill="#1f2335" class="dot" />
<circle cx="360.0" cy="62" r="3.5" fill="#1f2335" class="dot" />
<circle cx="384.0" cy="62" r="3.5" fill="#1f2335" class="dot" />
<circle cx="408.0" cy="62" r="3.5" fill="#1f2335" class="dot" />
<circle cx="432.0" cy="62" r="3.5" fill="#1f2335" class="dot" />
<circle cx="456.0" cy="62" r="3.5" fill="#1f2335" class="dot" />
<circle cx="480.0" cy="62" r="3.5" fill="#1f2335" class="dot" />
<circle cx="504.0" cy="62" r="3.5" fill="#1f2335" class="dot" />
<circle cx="528.0" cy="62" r="3.5" fill="#1f2335" class="dot" />
<circle cx="552.0" cy="62" r="3.5" fill="#1f2335" class="dot" />
<circle cx="576.0" cy="62" r="3.5" fill="#1f2335" class="dot" />
<circle cx="600.0" cy="62" r="3.5" fill="#1f2335" class="dot" />
<circle cx="624.0" cy="62" r="3.5" fill="#1f2335" class="dot" />
<circle cx="648.0" cy="62" r="3.5" fill="#1f2335" class="dot" />
<circle cx="72.0" cy="78" r="3.5" fill="#1f2335" class="dot" />
<circle cx="96.0" cy="78" r="3.5" fill="#1f2335" class="dot" />
<circle cx="120.0" cy="78" r="3.5" fill="#1f2335" class="dot" />
<circle cx="144.0" cy="78" r="3.5" fill="#1f2335" class="dot" />
<circle cx="168.0" cy="78" r="3.5" fill="#1f2335" class="dot" />
<circle cx="192.0" cy="78" r="3.5" fill="#1f2335" class="dot" />
<circle cx="216.0" cy="78" r="3.5" fill="#1f2335" class="dot" />
<circle cx="240.0" cy="78" r="3.5" fill="#1f2335" class="dot" />
<circle cx="264.0" cy="78" r="3.5" fill="#1f2335" class="dot" />
<circle cx="288.0" cy="78" r="3.5" fill="#1f2335" class="dot" />
<circle cx="312.0" cy="78" r="3.5" fill="#1f2335" class="dot" />
<circle cx="336.0" cy="78" r="3.5" fill="#1f2335" class="dot" />
<circle cx="360.0" cy="78" r="3.5" fill="#1f2335" class="dot" />
<circle cx="384.0" cy="78" r="3.5" fill="#1f2335" class="dot" />
<circle cx="408.0" cy="78" r="3.5" fill="#1f2335" class="dot" />
<circle cx="432.0" cy="78" r="3.5" fill="#1f2335" class="dot" />
<circle cx="456.0" cy="78" r="3.5" fill="#1f2335" class="dot" />
<circle cx="480.0" cy="78" r="3.5" fill="#1f2335" class="dot" />
<circle cx="504.0" cy="78" r="3.5" fill="#1f2335" class="dot" />
<circle cx="528.0" cy="78" r="3.5" fill="#1f2335" class="dot" />
<circle cx="552.0" cy="78" r="3.5" fill="#1f2335" class="dot" />
<circle cx="576.0" cy="78" r="3.5" fill="#1f2335" class="dot" />
<circle cx="600.0" cy="78" r="3.5" fill="#1f2335" class="dot" />
<circle cx="624.0" cy="78" r="3.5" fill="#1f2335" class="dot" />
<circle cx="648.0" cy="78" r="3.5" fill="#1f2335" class="dot" />

  <text x="360.0" y="110" text-anchor="middle" class="label-text">CURRENT MILESTONE CYCLE • 1/100 DOTS FILLED</text>
  <text x="360.0" y="126" text-anchor="middle" class="count-text">TOTAL UNIQUE VIEWS: 1</text>
</svg>